<svg xmlns="http://www.w3.org/2000/svg" xmlns:xlink="http://www.w3.org/1999/xlink" width="500" height="500" viewBox="0 0 375 375" version="1.2"><defs><symbol overflow="visible" id="c"><path d="M22.855-41.066c-11.765 0-21.058 7.718-21.058 21.507 0 13.188 8.695 20.61 20.16 20.61 10.867 0 18.887-5.399 20.383-15.739H29.078c-.75 4.348-3.297 6.594-6.371 6.594-4.57 0-7.121-3.746-7.121-12.289 0-7.719 2.476-11.543 6.973-11.543 3.37 0 5.992 1.95 6.593 7.196h13.04c-.376-8.993-7.57-16.336-19.337-16.336zm0 0"/></symbol><symbol overflow="visible" id="d"><path d="M27.504 0H40.69c-.597-4.422-.75-7.121-.75-10.117V-21.36c0-2.473-.074-4.793-.222-6.817-.602-7.27-4.946-12.89-17.614-12.89-10.113 0-18.433 5.32-18.507 14.687l12.738-.074c.227-3.45 2.023-5.473 5.172-5.473 2.922 0 4.57 1.801 4.797 3.824.148 1.274.148 2.098.148 2.922v.598h-2.547c-13.566 0-21.656 5.246-21.656 13.789 0 7.719 6.219 11.844 12.813 11.844 3.671 0 7.042-.903 9.89-2.7l1.652-4.195zm-6.895-8.094c-2.699 0-4.57-1.347-4.57-3.746 0-3.973 4.344-5.547 10.414-5.098v2.625c0 4.196-3.148 6.22-5.844 6.22zm0 0"/></symbol><symbol overflow="visible" id="e"><path d="M20.535-41.066c-10.644 0-17.539 4.945-17.539 12.89 0 6.817 4.574 10.34 12.215 12.137 7.121 1.652 9.668 3.074 9.668 5.621 0 2.102-1.871 3.074-4.27 3.074-2.847 0-5.246-2.023-5.996-5.097H1.348C2.398-3.445 9.816 1.05 20.684 1.05c9.668 0 17.687-3.973 17.687-12.516 0-7.719-5.172-10.867-12.441-12.664-7.645-1.875-9.442-3.375-9.442-5.621 0-1.727 1.348-2.926 3.223-2.926 2.394 0 3.746 1.574 4.344 4.348H37.32c-1.05-7.27-6.82-12.738-16.785-12.738zm0 0"/></symbol><symbol overflow="visible" id="f"><path d="M46.09-55.082H32.598v20.234l-2.621-4.27c-2.024-1.198-5.922-1.948-9.22-1.948-10.265 0-18.96 7.718-18.96 21.957 0 11.84 6.746 20.16 17.613 20.16 4.047 0 7.942-.824 10.192-2.477l2.996-4.418V0H46.09zM24.055-8.094c-4.72 0-8.47-4.195-8.47-11.691 0-8.168 3.599-12.14 8.845-12.14 4.047 0 8.168 2.698 8.168 10.718v1.723c0 8.394-3.598 11.39-8.543 11.39zm0 0"/></symbol><symbol overflow="visible" id="g"><path d="M43.242-20.535c0-10.34-6.746-20.531-20.086-20.531-13.34 0-21.36 9.515-21.36 21.207 0 14.09 9.145 20.91 20.61 20.91 10.27 0 17.762-5.098 20.086-14.164H29.227c-.524 3.07-2.848 5.02-6.668 5.02-3.825 0-6.747-1.876-7.422-8.544h27.879c.148-1.347.226-2.699.226-3.898zM22.48-31.925c3.598 0 5.922 2.323 6.672 7.046H15.586c.902-4.945 3.375-7.047 6.894-7.047zm0 0"/></symbol><symbol overflow="visible" id="h"><path d="M7.996-6.184c-.16-1.554-1.187-2.535-2.984-2.535-.95 0-1.703.258-2.395.946l-.449.918v-5.028h-.996V0h.996v-4.223c0-2.648 1.234-3.66 2.648-3.675 1.43-.02 2.07.816 2.184 1.972.031.434.031.805.031 1.285V0h.996v-4.754c0-.691 0-.996-.03-1.43zm0 0"/></symbol><symbol overflow="visible" id="i"><path d="M1.672-11a.669.669 0 00-.676.676c0 .367.305.672.676.672a.667.667 0 00.672-.672.658.658 0 00-.672-.676zm.496 11v-8.496h-.996V0zm0 0"/></symbol><symbol overflow="visible" id="j"><path d="M7.867-8.496H6.81L4.016-.738 1.187-8.496H.097L3.356 0h1.239zm0 0"/></symbol><symbol overflow="visible" id="k"><path d="M4.434-8.719C2.297-8.719.48-7.05.48-4.239c0 3 1.657 4.466 3.774 4.466 1.832 0 3.23-.997 3.613-2.875H6.84C6.535-1.285 5.57-.562 4.32-.562c-1.43 0-2.746-1.141-2.746-3.758 0-2.457 1.395-3.614 2.824-3.614 1.368 0 2.22.79 2.508 2.22H7.95C7.691-7.517 6.391-8.72 4.434-8.72zm0 0"/></symbol><symbol overflow="visible" id="l"><path d="M6.262 0h.996c-.113-1.012-.16-1.621-.16-2.375v-2.973c0-.402 0-.754-.032-1.125-.128-1.394-1.011-2.246-2.89-2.246-1.801 0-3.067 1.074-3.18 2.746H2.04c.129-1.316.965-1.945 2.137-1.945 1.219 0 1.812.563 1.894 1.543.032.336.032.66.032 1.043v.305h-.547c-3.067 0-4.914.949-4.914 2.89C.64-.594 1.766.227 3.34.227c.93 0 1.765-.274 2.36-.868l.417-.902zM3.645-.563c-1.235 0-1.91-.578-1.91-1.652 0-1.64 1.976-2.2 4.367-2.039v.977c0 1.59-.98 2.715-2.457 2.715zm0 0"/></symbol><symbol overflow="visible" id="m"><path d="M4.238-8.688c-.547 0-1.074.243-1.46.645l-.61 1.09v-1.543h-.996V0h.996v-4.77c0-2.261 1.09-3.18 2.57-3.066v-.785a1.566 1.566 0 00-.5-.066zm0 0"/></symbol><symbol overflow="visible" id="n"><path d="M8.027-4.48c0-2.344-1.234-4.239-3.613-4.239-2.23 0-3.934 1.75-3.934 4.48C.48-1.253 2.137.228 4.254.228c1.703 0 3.262-.934 3.664-2.907H6.871C6.566-1.285 5.508-.562 4.321-.562c-1.383 0-2.65-.883-2.762-3.387h6.437c.031-.258.031-.418.031-.531zM4.383-7.918c1.43 0 2.523.996 2.633 3.18H1.559c.144-2.117 1.43-3.18 2.824-3.18zm0 0"/></symbol><symbol overflow="visible" id="o"><path d="M3.582-8.719c-1.672 0-2.828.965-2.828 2.426 0 1.461 1.207 2.055 2.668 2.438 1.652.402 2.262.867 2.262 1.816 0 .98-.883 1.477-1.957 1.477-1.141 0-2.055-.497-2.297-1.942H.402C.641-.578 1.977.226 3.66.226c1.75 0 3.035-.835 3.035-2.347 0-1.426-.93-2.133-2.89-2.617-1.22-.305-2.024-.688-2.024-1.668 0-.934.692-1.512 1.719-1.512 1.14 0 1.832.629 2.07 1.8h1.047c-.195-1.491-1.191-2.6-3.035-2.6zm0 0"/></symbol><symbol overflow="visible" id="p"><path d="M8.238-11.8h-.996v4.769l-.531-.918c-.527-.512-1.348-.77-2.184-.77C2.375-8.719.48-7.227.48-4.145.48-1.62 1.895.227 4.27.227c.98 0 1.816-.274 2.41-.868l.562-.933V0h.996zM4.414-.563c-1.86 0-2.84-1.668-2.84-3.708 0-2.296 1.25-3.648 2.953-3.648 1.254 0 2.715.82 2.715 3.23v.641c0 2.57-1.316 3.484-2.828 3.484zm0 0"/></symbol><symbol overflow="visible" id="q"><path d="M2.457-7.66h1.621v-.77H2.457v-1.879h-.996v1.88H.37v.769h1.09v5.348c0 .48 0 .804.016 1.093.082.93.578 1.348 1.527 1.348.336 0 .687-.016 1.027-.082v-.738c-1.14.144-1.496-.063-1.558-.883-.016-.223-.016-.403-.016-.754zm0 0"/></symbol><symbol overflow="visible" id="r"><path d="M5.137-8.719c-.977 0-1.813.29-2.407.867l-.562.93V-11.8h-.996V0h.996v-1.445l.531.914c.528.5 1.348.758 2.184.758C7.03.227 8.93-1.27 8.93-4.352c0-2.52-1.414-4.367-3.793-4.367zM4.883-.563c-1.254 0-2.715-.82-2.715-3.242v-.644c0-2.567 1.316-3.469 2.824-3.469 1.863 0 2.844 1.656 2.844 3.695 0 2.297-1.254 3.66-2.953 3.66zm0 0"/></symbol><clipPath id="a"><path d="M187.5 143H217v27.32h-29.5zm0 0"/></clipPath><clipPath id="b"><path d="M267 131.324h15V146h-15zm0 0"/></clipPath></defs><path d="M269.473 142.074c-4.973 4.395-10.403 9.25-15.375 13.645.004.004.004.008.007.011.051.07.098.145.141.23.047.083.086.169.117.25.367.817.586 1.7.649 2.59 5.394-4.769 11.246-9.995 16.636-14.76a7.425 7.425 0 01-2.175-1.966zm-40.657.024a7.121 7.121 0 01-.949 3.054c4.52 3.996 9.496 8.45 14.02 12.442a6.863 6.863 0 011.316-2.727c-4.644-4.101-9.746-8.664-14.387-12.77zm0 0" fill="#fff"/><g clip-path="url(#a)"><path d="M198.742 157.82c-1.137-.863-2.558-1.394-4.176-1.48-3.933-.215-6.773 3.355-6.968 6.984-.215 3.946 3.343 6.793 6.968 6.988 3.774.204 6.536-3.078 6.926-6.55a1.54 1.54 0 00.043-.438 1.472 1.472 0 00-.043-.426c-.11-1.05-.398-2.015-.855-2.859 5.293-4.676 10.812-9.582 16.101-14.258a6.558 6.558 0 01-1.254-2.781c-5.504 4.863-11.238 9.957-16.742 14.82zm-8.23 5.504c-.282-5.238 7.824-5.21 8.105 0-.281 5.235-7.824 5.235-8.105 0zm0 0" fill="#fff"/></g><path d="M229.012 141.012c-.008-.055-.02-.11-.028-.164a1.556 1.556 0 00-.027-.227c-.66-3.516-3.906-5.992-7.46-5.691-3.618.304-6.25 3.39-6.349 6.949-.011.465.028.914.106 1.348a6.58 6.58 0 001.258 2.785c1.37 1.789 3.61 2.914 5.937 2.843 2.426-.074 4.496-1.496 5.649-3.472a7.08 7.08 0 00.945-3.055 6.758 6.758 0 00-.031-1.316zm-6.563 4.918c-2.414.218-4.265-1.73-4.383-4.051-.105-2.086 1.61-3.66 3.516-4.035 2.23-.442 4.078 1.379 4.531 3.398.188 2.317-1.207 4.469-3.664 4.688zm32.028 9.8a1.655 1.655 0 00-.145-.23c0-.004-.004-.008-.004-.012-2.027-3.207-6.047-4.238-9.41-2.457a6.277 6.277 0 00-1.945 1.61 6.823 6.823 0 00-1.317 2.722c-.418 1.778-.18 3.727.75 5.348 1.84 3.219 5.883 4.086 9.106 2.625 2.675-1.215 3.925-4.027 3.73-6.766a7.635 7.635 0 00-.648-2.59 2.035 2.035 0 00-.117-.25zm-4.172 6.942c-1.73 1.027-4.07.402-5.223-1.192-1.336-1.847-.828-4.449 1.016-5.742 2.02-1.418 4.68-.566 5.859 1.469 1.008 2.023.258 4.328-1.652 5.465zm0 0" fill="#fff"/><g clip-path="url(#b)"><path d="M281.91 137.992c-.101-3.672-3.191-6.441-6.719-6.66a1.582 1.582 0 00-.242-.012c-.082-.004-.16.004-.238.012-3.664.215-6.414 2.992-6.723 6.66-.133 1.606.364 3.098 1.254 4.313a7.391 7.391 0 002.18 1.965c1.234.73 2.687 1.109 4.148.988 3.711-.313 6.442-3.594 6.34-7.266zm-6.422 4.352c-2.597.511-4.648-1.961-4.582-4.352.063-2.137 2.031-3.691 4.043-3.746 2.106.059 3.863 1.61 4.043 3.746.188 2.215-1.43 3.938-3.504 4.352zm0 0" fill="#fff"/></g><use xlink:href="#c" x="45.637" y="211.861" fill="#fff"/><use xlink:href="#d" x="85.129" y="211.861" fill="#fff"/><use xlink:href="#e" x="124.622" y="211.861" fill="#fff"/><use xlink:href="#c" x="159.693" y="211.861" fill="#fff"/><use xlink:href="#d" x="199.186" y="211.861" fill="#fff"/><use xlink:href="#f" x="238.679" y="211.861" fill="#fff"/><use xlink:href="#g" x="284.317" y="211.861" fill="#fff"/><use xlink:href="#h" x="96.884" y="231.359" fill="#fff"/><use xlink:href="#i" x="107.625" y="231.359" fill="#fff"/><use xlink:href="#j" x="112.603" y="231.359" fill="#fff"/><use xlink:href="#k" x="122.188" y="231.359" fill="#fff"/><use xlink:href="#k" x="127.07" y="231.359" fill="#fff"/><use xlink:href="#l" x="137.105" y="231.359" fill="#fff"/><use xlink:href="#m" x="147.012" y="231.359" fill="#fff"/><use xlink:href="#n" x="153.483" y="231.359" fill="#fff"/><use xlink:href="#k" x="163.742" y="231.359" fill="#fff"/><use xlink:href="#k" x="168.624" y="231.359" fill="#fff"/><use xlink:href="#l" x="178.659" y="231.359" fill="#fff"/><use xlink:href="#o" x="188.566" y="231.359" fill="#fff"/><use xlink:href="#k" x="197.397" y="231.359" fill="#fff"/><use xlink:href="#l" x="207.432" y="231.359" fill="#fff"/><use xlink:href="#p" x="217.338" y="231.359" fill="#fff"/><use xlink:href="#n" x="228.385" y="231.359" fill="#fff"/><use xlink:href="#k" x="238.645" y="231.359" fill="#fff"/><use xlink:href="#p" x="243.526" y="231.359" fill="#fff"/><use xlink:href="#l" x="254.573" y="231.359" fill="#fff"/><use xlink:href="#q" x="264.479" y="231.359" fill="#fff"/><use xlink:href="#l" x="270.645" y="231.359" fill="#fff"/><use xlink:href="#r" x="280.552" y="231.359" fill="#fff"/><use xlink:href="#l" x="291.566" y="231.359" fill="#fff"/><use xlink:href="#o" x="301.473" y="231.359" fill="#fff"/><use xlink:href="#n" x="310.304" y="231.359" fill="#fff"/></svg>